<?xml version="1.0" encoding="utf-8"?>
<!-- Generator: Adobe Illustrator 19.0.0, SVG Export Plug-In . SVG Version: 6.00 Build 0)  -->
<svg version="1.1" id="Layer_1" xmlns="http://www.w3.org/2000/svg" xmlns:xlink="http://www.w3.org/1999/xlink" x="0px" y="0px"
	 viewBox="0 0 1600 1600" style="enable-background:new 0 0 1600 1600;" xml:space="preserve">
<style type="text/css">
	.st0{fill:#383838;}
	.st1{fill:#EE4355;}
</style>
<g>
	<path class="st0" d="M237.2,490c3.2-26.6,5.8-54.4,10-82c3.9-25.8,18.5-45.4,41.1-57.9c16.5-9.1,34.2-15.8,51.3-23.8
		c3-1.4,7.9-4.5,7.6-6c-0.6-3.7-3.1-8.8-6.2-10c-9.6-3.8-19.8-6.2-29.8-9.1c-2.6-0.7-5.1-1.5-7.7-2.2c1.6-2.8,2.6-6.5,5-8.4
		c25.9-20.7,55.5-28.8,88.4-25.2c4.2,0.5,8.2,1.8,12.4,2.2c12.6,1.2,20.1-2.3,22.1-14c6.8-39.8,33.2-63.4,65.7-82.3
		c9.1-5.3,17.9-11.2,27.3-15.7c4.4-2.1,10.1-1.6,15.2-2.3c-0.4,4.6,0,9.4-1.3,13.7c-2,6.7-5.9,12.8-7.8,19.4
		c-1.9,6.6-2.7,13.7-3,20.6c-0.3,5.2,2.9,7.8,8.1,5.3c4.4-2.1,8.6-4.7,12.8-7.2c57.7-33.7,120-52.3,186.4-59.5
		c61.8-6.7,123-1.8,184.3,5.6c1.7,0.2,3.2,1.6,4.7,2.5c-1.3,1.4-2.5,3.1-4,4.2c-7.7,6-16.2,11.2-23,18.1
		c-10.7,10.8-8.2,20.8,6.6,24.7c14.8,3.9,30.2,5.8,45.4,8c83.3,12.1,161.4-4.1,235-44.1c15.4-8.3,30.5-17.1,45.8-25.6
		c1.8-1,3.9-1.5,5.9-2.2c0.2,2.4,0.8,4.8,0.4,7.1c-7.9,45.2-23.2,87.8-46.1,127.6c-15.2,26.5-27,33.3,12.3,60.6
		c36.4,25.2,54.9,62.8,61.9,105.9c9.6,59.5,6.2,119-5.9,177.5c-9.6,46.4-23.9,91.9-36.7,137.7c-4.7,16.7-9.4,19-27.5,18.8
		c-15.4-0.2-22.4-4-25.7-19.2c-3.1-14.2-3.5-29-3.8-43.6c-1.8-87.5-16.8-172.5-48-254.4c-3.5-9.1-8.1-17.9-12.7-26.5
		c-8.5-16-10.7-16.8-28-9.3c-7.7,3.3-15,7.5-22.4,11.4c-70,37.3-142.9,67.1-220.1,86.3c-90.9,22.6-182.9,27.6-275.1,14.5
		c-46-6.6-92.3-16.5-134.5-38.4c-3.7-1.9-7.6-3.6-11.5-5c-19.8-6.8-32-3.2-43.2,14.6c-17.2,27.5-29.6,57.2-37.5,88.6
		c-11,43.7-14,88.4-13,133.4c0.1,6.2,2.1,12.4,2.9,18.6c2.1,14.7-1.8,20.8-15.8,24.8c-4.7,1.4-9.5,2.4-14.3,3.5
		c-6.5,1.5-11-0.8-12.9-7.2c-4.7-15.4-9.1-30.8-13.8-46.1c-11.4-37.8-12.3-77.1-16.6-115.9C243.8,565.4,240.8,528.5,237.2,490z"/>
	<path class="st0" d="M549.2,643c32.9,0,65.9-0.2,98.8,0.1c7.6,0.1,15.4,1,22.8,2.8c24.3,5.8,35.6,18.6,38.1,43.7
		c1.2,11.8,0.5,23.8,1.2,35.7c0.7,11.9,1.2,23.8,3.4,35.5c3.7,20,17.4,29.9,37.6,28.7c2.1-0.1,4.2-0.4,6.3-0.7
		c26.1-4.1,27.7-5.5,30-32.6c1.4-16.7,1.9-33.5,2.7-50.3c2.1-47.8,16.2-62.1,64.4-62.7c54.6-0.6,109.3-0.2,164-0.3
		c11.9,0,23.8-0.7,35.7-0.9c16-0.2,20.8,4.9,20.8,21.7c0,17.7-5.7,24.3-21.1,24.3c-58.1-0.3-116.3-0.8-174.4-1.1
		c-38.7-0.2-44.7,6.6-44.4,45.4c0.4,49.7,0.1,99.5,0.1,149.2c0,7-0.4,14.1,0.8,21c2.3,13.6,10.5,20.7,24.2,22.2
		c5.6,0.6,11.2,0.2,16.8,0.2c56.8-0.1,113.5-0.2,170.3-0.3c20.9,0,28.4,6.7,27.8,24.8c-0.5,14.3-5.9,20.5-20.7,20.5
		c-70.8,0.2-141.6,0.5-212.3-0.5c-35.1-0.5-50.4-16.5-52.7-52c-1.2-19.5-1-39.1-0.4-58.6c0.7-19.9-5.6-28.6-25.3-31.5
		c-6.2-0.9-12.6-0.8-18.9-0.7c-27.5,0.3-37.3,11.9-35.4,39.6c1.1,15.9,1.4,32,0.4,48c-2.4,37.1-20.1,54.6-57.5,55.4
		c-49,1.1-98.1,0.8-147.1,1c-19.6,0.1-39.2-0.1-58.9-0.6c-17.1-0.4-22.7-6.4-22.6-23c0.2-16.4,5.6-22,23.3-22
		c57.5-0.2,114.9-0.1,172.4-0.1c5.6,0,11.2,0.2,16.8-0.1c16.7-1.1,24.4-7.6,26.4-24.1c1.1-9,0.1-18.2,0.1-27.3
		c0-44.1,0.1-88.1-0.1-132.2c0-11.2,0.1-22.5-1.8-33.4c-2.4-14-8.8-18.9-22.7-20.4c-5.6-0.6-11.2-0.4-16.8-0.4
		c-58.2,0.1-116.3,0.2-174.5,0.2c-19.5,0-30.8-19.9-20.9-36.6c4.7-7.9,12.4-7.9,20.3-7.9c34.3,0.1,68.7,0,103,0
		C549.2,642.8,549.2,642.9,549.2,643z"/>
	<path class="st1" d="M345.4,886.2c0-11.9-0.2-23.8,0.1-35.7c0.3-13.5-4.7-22.4-18.1-27.1c-11.8-4.2-17.8-22.9-10.8-32.5
		c2-2.8,7-3.8,10.8-4.9c12.6-3.6,18.1-11.9,18.1-24.8c-0.1-22.4,0-44.8,0-67.2c0-5.6-0.4-11.3,0.2-16.8c3.1-25.8,13-35.2,38.9-37.5
		c6.3-0.5,12.6-0.5,18.9-0.6c9.1-0.1,14.2,3.4,14.4,13.6c0.2,13.5-1.5,16.4-13.9,18.6c-23.2,4.1-23.3,4.1-23.4,27.9
		c-0.1,20.3-0.2,40.6,0,60.9c0.1,13-1.7,25.2-11.2,34.9c-6.3,6.4-5.2,11.7,0.8,17.8c8.5,8.5,10.2,19.6,10.2,31
		c0.1,21.7-0.1,43.4,0.2,65.1c0.2,21.1,1.4,22.3,21.9,24.8c14.7,1.7,15.3,2.3,14.8,16.6c-0.4,13.5-1.7,14.8-16,15.8
		c-42.1,2.9-55.7-9.9-55.9-52.5C345.4,904.4,345.4,895.3,345.4,886.2z"/>
	<path class="st1" d="M1153.6,721.7c0,12.6,0.3,25.2-0.1,37.8c-0.4,13.7,5,24,18.8,26.1c12,1.9,12.1,9.3,12.2,18
		c0.1,9.3,0.3,18.1-12.5,20.4c-13.8,2.6-18.9,12.3-18.6,26.1c0.6,21.7,0.2,43.4,0.1,65.1c0,5.6,0,11.2-0.9,16.7
		c-4.2,24-13.3,32.1-37.6,33.9c-4.9,0.4-9.8,0.4-14.7,0.3c-16.9-0.5-23.2-11.1-15-26c1.6-3,6.3-5.2,10-6c23.2-5,23.3-4.8,23.3-27.9
		c0.1-20.3,0.3-40.6-0.1-60.9c-0.2-12.4,1.8-23.9,10.7-32.9c6.3-6.3,6.1-11.5,0-17.6c-8.9-9.1-10.9-20.6-10.7-32.9
		c0.3-21.7,0.2-43.4,0-65.1c-0.2-21.1-1.2-22.1-21.8-25.1c-14-2.1-14-2.1-13.3-15.2c0.8-15.5,1.6-17,14.6-17c13,0,26.6-2.1,38.6,5.8
		c13.2,8.8,15.9,22.4,16.6,36.5c0.6,13.3,0.1,26.6,0.1,39.9C1153.5,721.7,1153.6,721.7,1153.6,721.7z"/>
	<path class="st0" d="M1182.5,1116.8c19.7-0.3,38,2.7,50.3,20.2c4.3,6.1,10.6,12.7,2.6,20.2c-8.8,8.2-22.9,9.2-28.8,1.5
		c-9.6-12.5-22.2-13.7-35.8-11.1c-7.2,1.4-14.7,5.5-13.3,13.5c0.8,4.9,7,9.7,11.8,12.8c3.8,2.4,9.4,2.2,14.1,3.2
		c10.9,2.2,22.3,3.3,32.7,7c30.3,11,37.8,49.6,14.4,71.9c-21.7,20.7-71,22.7-94,3.8c-2.7-2.2-5.4-4.6-7.2-7.5
		c-4.4-6.9-11.5-14-4.8-22.5c6.6-8.4,23.4-8,30.9,0.5c8.7,10,19.3,13.2,31.9,11.7c13.6-1.7,21.5-7.3,22.4-15.4
		c0.8-7.8-7-14.2-20.9-16.6c-11-1.9-22.3-2.6-33.1-5.2c-29-7-42.1-35.6-28.8-62.2c7.2-14.2,19.7-21.4,34.8-24.3
		C1168.5,1117.2,1175.6,1117.3,1182.5,1116.8z"/>
	<path class="st0" d="M1382.1,1194.6c0,20.3,0.2,40.6-0.1,61c-0.2,12.8-0.8,13-15.3,13.1c-15.8,0.1-16.6-0.4-16.9-13.7
		c-0.3-11.9-0.3-23.8-0.1-35.7c0.1-7.3-3.2-10.2-10.1-9.8c-0.7,0-1.4,0-2.1-0.1c-39.6-2.5-39.6-2.5-39.8,37c0,1.4,0,2.8,0,4.2
		c-0.3,17.7-1.4,18.7-19.3,18.1c-13.1-0.5-13.8-0.6-13.9-14.9c-0.3-39.9-0.3-79.9,0-119.8c0.1-13.8,1.7-14.8,16.4-14.7
		c14.5,0.1,16.2,1.4,16.7,14.9c0.4,11.2,0.3,22.4,0.1,33.6c-0.1,6.9,2.9,9.6,9.9,10.4c40.2,4.6,41.9,3.3,42.1-37.1
		c0-1.4-0.2-2.9,0-4.2c1.1-5.2,1.3-14.2,3.7-14.8c7.7-2.1,16.4-2.1,24.4-0.8c2.1,0.3,4.1,8.1,4.2,12.5
		C1382.4,1153.9,1382.1,1174.3,1382.1,1194.6z"/>
	<path class="st0" d="M809.9,1115.3c20.2,0.7,38.3,4.2,50.7,21.6c3.8,5.3,10.2,11.1,3.5,18.4c-7.7,8.4-23,10.3-29.2,2.8
		c-10.6-12.9-23.8-14-37.8-9.8c-4.3,1.3-9.8,7.3-10,11.4c-0.2,4,4.6,10.1,8.8,12.2c6,3.1,13.4,3.6,20.2,5c6.8,1.4,13.8,2,20.5,3.8
		c23.7,6.3,32.2,16,33.3,36.8c1.2,23.3-7.2,38-28.3,46.1c-20.2,7.8-41.2,8.2-61.5,0.7c-7.5-2.8-15.1-8-20.1-14.2
		c-4.3-5.3-8.4-15.4-6.1-20c2.7-5.3,12.4-8.1,19.6-9.7c2.9-0.7,7.7,4.3,10.8,7.5c11.5,12.1,27.6,16.4,41.7,9.1
		c4.7-2.5,9.4-8.4,10.6-13.6c1.8-7.3-5-11.1-11.3-12.8c-8.1-2.2-16.4-3.2-24.7-4.8c-6.2-1.2-12.5-1.8-18.4-3.6
		c-19.9-5.9-28.6-16.6-29.9-35.5c-1.4-19.7,6.4-35.5,23.6-42.8C786.5,1119.3,798.5,1118,809.9,1115.3z"/>
	<path class="st1" d="M155.5,1194.2c0-19.6-0.3-39.2,0.1-58.7c0.3-12.1,2.2-13.2,15.8-13.2c13.3,0,14.6,1,15,13.8
		c0.3,9.8,0.4,19.6,0,29.4c-0.4,10.3,3.7,15.8,14.6,15.6c9.8-0.2,19.6-0.1,29.4-0.1c8.6,0,12.7-4.6,12.8-13.1
		c0-10.5-0.2-21,0.2-31.5c0.5-12.6,2.5-14.2,15-14.1c12.7,0.1,15.8,2.1,16,13.7c0.5,26.6,0.2,53.2,0.2,79.7
		c0,12.6,0.5,25.2-0.2,37.8c-0.7,12.1-4.4,13.9-18.2,14.2c-10.6,0.2-13.2-4.9-13-14.1c0.2-11.2,0-22.4-0.2-33.6
		c-0.1-7.6-4-11.6-11.8-11.5c-1.4,0-2.8-0.2-4.2-0.1c-48.8,0.3-39.5-4.5-40.5,37.3c0,1.4,0,2.8,0,4.2c-0.5,16-2.1,17.8-16.1,17.6
		c-13.4-0.1-14.7-1.6-14.9-18.7C155.3,1230.6,155.5,1212.4,155.5,1194.2C155.5,1194.2,155.5,1194.2,155.5,1194.2z"/>
	<path class="st1" d="M592.9,1193c0-19.6-0.2-39.2,0.1-58.8c0.2-14.9,1.7-16.2,15-16.2c13.9-0.1,15.5,1.3,15.9,15.4
		c0.3,9.8-0.4,19.6,0.3,29.4c0.3,4.3,3,8.3,4.5,12.5c3.7-2.7,8.2-4.9,10.9-8.3c9.5-12.1,18.4-24.7,27.5-37.1
		c4.7-6.5,9.9-12.1,18.7-11.7c6.8,0.3,13.7,1.4,20.5,2.1c-2.9,6-5.2,12.5-9,17.9c-8.4,12.1-17.2,23.8-26.4,35.3
		c-6,7.4-4.1,12.1,1,19.9c13.7,21,25.4,43.3,37.5,65.3c1.1,1.9-0.2,7.4-1.7,8.1c-13.3,5.8-30.2-0.6-37-13.7
		c-5.2-9.9-9.4-20.3-14.9-30.1c-3-5.3-6.9-10.8-11.8-14.3c-10.4-7.4-19-3.1-19.8,9.6c-0.7,11.9,0.1,23.8-0.5,35.7
		c-0.5,12.4-2.2,13.5-15.6,13.6c-13.5,0.1-14.9-0.7-15.1-13.5C592.6,1233.6,592.9,1213.3,592.9,1193z"/>
	<path class="st0" d="M523.6,869.2c-26.1,1.9-48.1-12.4-56.1-45.6c-7.2-29.8,3.5-54.3,28.9-67.1c7.4-3.7,15.4-6.9,23.4-8.5
		c12.8-2.6,18.8,0.8,21,13.7c2.9,17.4,10.5,25.7,29.2,24.7c12.4-0.6,16.9,5.4,16.7,18.8C586.1,842,567.5,870.4,523.6,869.2z"/>
	<path class="st0" d="M968.3,869.1c-29-0.1-47.3-14.1-54.9-41.9c-8.1-29.7,1-54.8,25.4-68.9c5.4-3.1,11.3-5.6,17.2-7.6
		c18.3-6.3,24.9-2.7,30.4,16.3c4.8,16.3,7.8,18.8,24.6,19.7c16.3,0.9,19.6,3.7,20.6,19.3C1034.5,848.9,1001.5,871.9,968.3,869.1z"/>
	<path class="st0" d="M1097.3,1268.7c-11.1,2.1-19.9-1.6-22.4-15.9c-1.4-8.1-7.1-11.3-15.3-10.7c-6.3,0.4-12.6,0.6-18.9-0.1
		c-14.7-1.5-25.1,1.1-29.5,18.1c-3.7,14.5-17.5,7.1-27.1,8.3c-7.5,1-9.9-2.5-7-10.1c16.2-42.4,32.4-84.8,47.8-127.5
		c4.2-11.5,12.2-11.4,21.6-11.8c9.5-0.4,15.9,2.3,19.4,11.9c11,30.2,22.4,60.2,33.6,90.3c3.9,10.5,8.1,20.8,11.7,31.4
		C1116.6,1267.9,1116,1268.5,1097.3,1268.7z M1044.3,1157.8c-4.2,14.1-7.9,26.6-11.7,39.1c-5.2,17.2-4.9,17.7,12.4,17.7
		c2.1,0,4.2-0.1,6.3,0c7.8,0.4,10-3.4,7.8-10.3C1054.3,1189.2,1049.5,1174.1,1044.3,1157.8z"/>
	<path class="st1" d="M418.5,1267.5c-9.7,1.9-16-3.7-18.2-14c-2.8-13.2-11.4-16.3-23.3-15.3c-4.2,0.4-8.4,0.3-12.6,0
		c-15.8-1.3-29,0.3-33.1,19.9c-1.8,8.6-20.9,13.6-28.6,8c-2.3-1.7-2.4-8.8-1.1-12.6c9.3-26.4,19.3-52.5,29.1-78.7
		c5.4-14.4,11-28.8,15.9-43.3c3.5-10.3,10.1-13.7,20.6-13.8c10.3-0.1,17,2.5,20.8,13c14.6,40.1,30,79.9,44.6,119.9
		C438,1265.3,435.9,1267.7,418.5,1267.5z M365.9,1215.4c0.7,0,1.4,0,2.1,0c17.5-0.3,18.7-1.8,14-17.9c-4.1-14.1-8-28.2-12.2-42.2
		c-0.6-1.9-1.9-3.5-2.9-5.2c-1.1,1.6-2.6,3.1-3.1,4.9c-4,14.1-7.8,28.2-11.8,42.3C347.4,1213.5,348.7,1215.3,365.9,1215.4z"/>
	<path class="st1" d="M445.1,1188.8c1.5-10.7,3-23.1,5.1-35.4c0.7-4,2.2-8.2,4.3-11.7c11.5-19.3,29.2-26.7,51.1-27.2
		c23.6-0.6,44.9,3.3,58.4,25.2c3.4,5.6,9.1,11.9,0.1,18.1c-9.3,6.4-19.6,6.3-26.2-0.4c-3.4-3.5-6.3-7.8-10.3-10.2
		c-21.7-13.3-46.8-1.2-49.3,24.3c-1.4,13.9-1.3,28.1-0.1,42c1,11.9,4.2,24,18.5,27.5c15.1,3.6,29.4,3.4,39.6-10.7
		c3.7-5,5.7-10.5,14.5-8c19.9,5.5,23.2,13,9.6,28.6c-5.3,6.1-12.4,11.7-19.9,14.8c-15.7,6.5-32.1,8.1-49.3,4
		c-24.6-5.9-39.6-19.7-42.6-45.3C447.4,1213,446.5,1201.9,445.1,1188.8z"/>
	<path class="st0" d="M898.9,1122c9.6-1,16.6,3.6,20.4,14.8c12.6,37,26,73.8,38.8,110.8c4.6,13.3,3.1,17.5-5.6,20.6
		c-11.1,4-18.4,0.8-22.8-11c-14.8-40-29.3-80.1-43.8-120.2C881,1123.4,882.5,1121.7,898.9,1122z"/>
</g>
</svg>
